{
    "asset" : {
        "generator" : "Khronos glTF Blender I/O v1.6.16",
        "version" : "2.0"
    },
    "scene" : 0,
    "scenes" : [
        {
            "name" : "Scene",
            "nodes" : [
                8,
                9,
                10
            ]
        }
    ],
    "nodes" : [
        {
            "mesh" : 0,
            "name" : "Object_4"
        },
        {
            "children" : [
                0
            ],
            "name" : "Cube_0",
            "translation" : [
                0,
                0.2807497978210449,
                0
            ]
        },
        {
            "mesh" : 1,
            "name" : "Object_6"
        },
        {
            "children" : [
                2
            ],
            "name" : "Cylinder.001_1",
            "rotation" : [
                0.5933775305747986,
                0.38458171486854553,
                0.38458168506622314,
                0.5933775305747986
            ],
            "translation" : [
                0,
                0,
                -4.34702730178833
            ]
        },
        {
            "mesh" : 2,
            "name" : "Object_8"
        },
        {
            "children" : [
                4
            ],
            "name" : "Cylinder.002_2",
            "rotation" : [
                0.7071068286895752,
                0,
                0,
                0.7071068286895752
            ],
            "translation" : [
                0,
                0,
                -4.247254848480225
            ]
        },
        {
            "children" : [
                1,
                3,
                5
            ],
            "name" : "GLTF_SceneRootNode",
            "rotation" : [
                0.7071068286895752,
                0,
                0,
                0.7071068286895752
            ]
        },
        {
            "children" : [
                6
            ],
            "name" : "root"
        },
        {
            "children" : [
                7
            ],
            "name" : "Sketchfab_model",
            "rotation" : [
                0,
                0.7071068286895752,
                0.7071068286895752,
                -3.090862321641907e-08
            ]
        },
        {
            "name" : "Light",
            "rotation" : [
                0.16907575726509094,
                0.7558803558349609,
                -0.27217137813568115,
                0.570947527885437
            ],
            "translation" : [
                4.076245307922363,
                5.903861999511719,
                -1.0054539442062378
            ]
        },
        {
            "name" : "Camera",
            "rotation" : [
                0.483536034822464,
                0.33687159419059753,
                -0.20870360732078552,
                0.7804827094078064
            ],
            "translation" : [
                7.358891487121582,
                4.958309173583984,
                6.925790786743164
            ]
        }
    ],
    "materials" : [
        {
            "doubleSided" : true,
            "name" : "trop",
            "normalTexture" : {
                "index" : 0
            },
            "pbrMetallicRoughness" : {
                "baseColorTexture" : {
                    "index" : 1
                },
                "metallicRoughnessTexture" : {
                    "index" : 2
                }
            }
        },
        {
            "doubleSided" : true,
            "name" : "material",
            "normalTexture" : {
                "index" : 3,
                "texCoord" : 2
            },
            "pbrMetallicRoughness" : {
                "baseColorTexture" : {
                    "index" : 4
                },
                "metallicRoughnessTexture" : {
                    "index" : 5,
                    "texCoord" : 1
                }
            }
        },
        {
            "doubleSided" : true,
            "name" : "prop",
            "normalTexture" : {
                "index" : 6
            },
            "pbrMetallicRoughness" : {
                "baseColorTexture" : {
                    "index" : 7
                },
                "metallicRoughnessTexture" : {
                    "index" : 8
                }
            }
        }
    ],
    "meshes" : [
        {
            "name" : "Object_0",
            "primitives" : [
                {
                    "attributes" : {
                        "POSITION" : 0,
                        "NORMAL" : 1,
                        "TEXCOORD_0" : 2,
                        "TEXCOORD_1" : 3,
                        "TEXCOORD_2" : 4,
                        "TEXCOORD_3" : 5
                    },
                    "indices" : 6,
                    "material" : 0
                }
            ]
        },
        {
            "name" : "Object_1",
            "primitives" : [
                {
                    "attributes" : {
                        "POSITION" : 7,
                        "NORMAL" : 8,
                        "TEXCOORD_0" : 9,
                        "TEXCOORD_1" : 10,
                        "TEXCOORD_2" : 11,
                        "TEXCOORD_3" : 12
                    },
                    "indices" : 13,
                    "material" : 1
                }
            ]
        },
        {
            "name" : "Object_2",
            "primitives" : [
                {
                    "attributes" : {
                        "POSITION" : 14,
                        "NORMAL" : 15,
                        "TEXCOORD_0" : 16,
                        "TEXCOORD_1" : 17,
                        "TEXCOORD_2" : 18,
                        "TEXCOORD_3" : 19
                    },
                    "indices" : 20,
                    "material" : 2
                }
            ]
        }
    ],
    "textures" : [
        {
            "sampler" : 0,
            "source" : 0
        },
        {
            "sampler" : 0,
            "source" : 1
        },
        {
            "sampler" : 0,
            "source" : 2
        },
        {
            "sampler" : 0,
            "source" : 3
        },
        {
            "sampler" : 0,
            "source" : 4
        },
        {
            "sampler" : 0,
            "source" : 5
        },
        {
            "sampler" : 0,
            "source" : 6
        },
        {
            "sampler" : 0,
            "source" : 7
        },
        {
            "sampler" : 0,
            "source" : 8
        }
    ],
    "images" : [
        {
            "bufferView" : 7,
            "mimeType" : "image/png",
            "name" : "trop_normal"
        },
        {
            "bufferView" : 8,
            "mimeType" : "image/png",
            "name" : "trop_baseColor"
        },
        {
            "bufferView" : 9,
            "mimeType" : "image/png",
            "name" : "trop_metallicRoughness"
        },
        {
            "bufferView" : 17,
            "mimeType" : "image/png",
            "name" : "material_normal"
        },
        {
            "bufferView" : 18,
            "mimeType" : "image/png",
            "name" : "material_baseColor"
        },
        {
            "bufferView" : 19,
            "mimeType" : "image/png",
            "name" : "material_metallicRoughness"
        },
        {
            "bufferView" : 27,
            "mimeType" : "image/png",
            "name" : "prop_normal"
        },
        {
            "bufferView" : 28,
            "mimeType" : "image/png",
            "name" : "prop_baseColor"
        },
        {
            "bufferView" : 29,
            "mimeType" : "image/png",
            "name" : "prop_metallicRoughness"
        }
    ],
    "accessors" : [
        {
            "bufferView" : 0,
            "componentType" : 5126,
            "count" : 405,
            "max" : [
                0.2807497978210449,
                0,
                3.962764263153076
            ],
            "min" : [
                -0.2807497978210449,
                -0.5614995956420898,
                -4.214516639709473
            ],
            "type" : "VEC3"
        },
        {
            "bufferView" : 1,
            "componentType" : 5126,
            "count" : 405,
            "type" : "VEC3"
        },
        {
            "bufferView" : 2,
            "componentType" : 5126,
            "count" : 405,
            "type" : "VEC2"
        },
        {
            "bufferView" : 3,
            "componentType" : 5126,
            "count" : 405,
            "type" : "VEC2"
        },
        {
            "bufferView" : 4,
            "componentType" : 5126,
            "count" : 405,
            "type" : "VEC2"
        },
        {
            "bufferView" : 5,
            "componentType" : 5126,
            "count" : 405,
            "type" : "VEC2"
        },
        {
            "bufferView" : 6,
            "componentType" : 5123,
            "count" : 1380,
            "type" : "SCALAR"
        },
        {
            "bufferView" : 10,
            "componentType" : 5126,
            "count" : 923,
            "max" : [
                0.06575242429971695,
                0.14768865704536438,
                0.06557264178991318
            ],
            "min" : [
                -0.06575242429971695,
                -0.16529059410095215,
                -0.06557266414165497
            ],
            "type" : "VEC3"
        },
        {
            "bufferView" : 11,
            "componentType" : 5126,
            "count" : 923,
            "type" : "VEC3"
        },
        {
            "bufferView" : 12,
            "componentType" : 5126,
            "count" : 923,
            "type" : "VEC2"
        },
        {
            "bufferView" : 13,
            "componentType" : 5126,
            "count" : 923,
            "type" : "VEC2"
        },
        {
            "bufferView" : 14,
            "componentType" : 5126,
            "count" : 923,
            "type" : "VEC2"
        },
        {
            "bufferView" : 15,
            "componentType" : 5126,
            "count" : 923,
            "type" : "VEC2"
        },
        {
            "bufferView" : 16,
            "componentType" : 5123,
            "count" : 2460,
            "type" : "SCALAR"
        },
        {
            "bufferView" : 20,
            "componentType" : 5126,
            "count" : 294,
            "max" : [
                0.17107385396957397,
                0.02635779231786728,
                0.13394668698310852
            ],
            "min" : [
                -0.13923756778240204,
                -0.1602144092321396,
                -0.1761380285024643
            ],
            "type" : "VEC3"
        },
        {
            "bufferView" : 21,
            "componentType" : 5126,
            "count" : 294,
            "type" : "VEC3"
        },
        {
            "bufferView" : 22,
            "componentType" : 5126,
            "count" : 294,
            "type" : "VEC2"
        },
        {
            "bufferView" : 23,
            "componentType" : 5126,
            "count" : 294,
            "type" : "VEC2"
        },
        {
            "bufferView" : 24,
            "componentType" : 5126,
            "count" : 294,
            "type" : "VEC2"
        },
        {
            "bufferView" : 25,
            "componentType" : 5126,
            "count" : 294,
            "type" : "VEC2"
        },
        {
            "bufferView" : 26,
            "componentType" : 5123,
            "count" : 1152,
            "type" : "SCALAR"
        }
    ],
    "bufferViews" : [
        {
            "buffer" : 0,
            "byteLength" : 4860,
            "byteOffset" : 0
        },
        {
            "buffer" : 0,
            "byteLength" : 4860,
            "byteOffset" : 4860
        },
        {
            "buffer" : 0,
            "byteLength" : 3240,
            "byteOffset" : 9720
        },
        {
            "buffer" : 0,
            "byteLength" : 3240,
            "byteOffset" : 12960
        },
        {
            "buffer" : 0,
            "byteLength" : 3240,
            "byteOffset" : 16200
        },
        {
            "buffer" : 0,
            "byteLength" : 3240,
            "byteOffset" : 19440
        },
        {
            "buffer" : 0,
            "byteLength" : 2760,
            "byteOffset" : 22680
        },
        {
            "buffer" : 0,
            "byteLength" : 137078,
            "byteOffset" : 25440
        },
        {
            "buffer" : 0,
            "byteLength" : 64332,
            "byteOffset" : 162520
        },
        {
            "buffer" : 0,
            "byteLength" : 115599,
            "byteOffset" : 226852
        },
        {
            "buffer" : 0,
            "byteLength" : 11076,
            "byteOffset" : 342452
        },
        {
            "buffer" : 0,
            "byteLength" : 11076,
            "byteOffset" : 353528
        },
        {
            "buffer" : 0,
            "byteLength" : 7384,
            "byteOffset" : 364604
        },
        {
            "buffer" : 0,
            "byteLength" : 7384,
            "byteOffset" : 371988
        },
        {
            "buffer" : 0,
            "byteLength" : 7384,
            "byteOffset" : 379372
        },
        {
            "buffer" : 0,
            "byteLength" : 7384,
            "byteOffset" : 386756
        },
        {
            "buffer" : 0,
            "byteLength" : 4920,
            "byteOffset" : 394140
        },
        {
            "buffer" : 0,
            "byteLength" : 126,
            "byteOffset" : 399060
        },
        {
            "buffer" : 0,
            "byteLength" : 920,
            "byteOffset" : 399188
        },
        {
            "buffer" : 0,
            "byteLength" : 126,
            "byteOffset" : 400108
        },
        {
            "buffer" : 0,
            "byteLength" : 3528,
            "byteOffset" : 400236
        },
        {
            "buffer" : 0,
            "byteLength" : 3528,
            "byteOffset" : 403764
        },
        {
            "buffer" : 0,
            "byteLength" : 2352,
            "byteOffset" : 407292
        },
        {
            "buffer" : 0,
            "byteLength" : 2352,
            "byteOffset" : 409644
        },
        {
            "buffer" : 0,
            "byteLength" : 2352,
            "byteOffset" : 411996
        },
        {
            "buffer" : 0,
            "byteLength" : 2352,
            "byteOffset" : 414348
        },
        {
            "buffer" : 0,
            "byteLength" : 2304,
            "byteOffset" : 416700
        },
        {
            "buffer" : 0,
            "byteLength" : 126,
            "byteOffset" : 419004
        },
        {
            "buffer" : 0,
            "byteLength" : 27295,
            "byteOffset" : 419132
        },
        {
            "buffer" : 0,
            "byteLength" : 63261,
            "byteOffset" : 446428
        }
    ],
    "samplers" : [
        {
            "magFilter" : 9729,
            "minFilter" : 9987
        }
    ],
    "buffers" : [
        {
            "byteLength" : 509692,
            "uri" : "data:application/octet-stream;base64,"
        }
    ]
}
